<svg width="319.4" height="69.168" viewBox="0 0 319.4 69.168" xmlns="http://www.w3.org/2000/svg">
  <defs>
    <filter id="faux-bold">
      <feMorphology operator="dilate" radius="1" />
    </filter>
    <filter id="faux-light">
      <feMorphology operator="erode" radius="0.75" />
    </filter>
  </defs>
  <path
    d="M25.27 52.96L8.32 52.96Q4.85 52.96 3.05 52.09Q1.25 51.21 0.62 49.22Q0 47.24 0 43.93L0 43.93L0 13.68Q0 10.31 0.62 8.34Q1.25 6.37 3.05 5.51Q4.85 4.65 8.32 4.65L8.32 4.65L24.16 4.65Q24.97 4.65 25.37 4.92L25.37 4.92Q26.25 5.53 27.19 6.37Q28.13 7.21 29.18 8.39L29.18 8.39Q29.51 8.83 29.51 9.10L29.51 9.10Q29.51 9.40 29.18 9.77L29.18 9.77Q28.13 10.95 27.19 11.79Q26.25 12.63 25.37 13.24L25.37 13.24Q24.90 13.51 24.16 13.51L24.16 13.51L14.72 13.51Q12.50 13.51 11.69 14.45Q10.88 15.40 10.88 17.69L10.88 17.69L10.88 24.22L22.98 24.22Q23.79 24.22 24.19 24.49L24.19 24.49Q25.07 25.10 26.01 25.94Q26.95 26.78 28.00 27.96L28.00 27.96Q28.33 28.40 28.33 28.67L28.33 28.67Q28.33 28.97 28.00 29.35L28.00 29.35Q26.95 30.52 26.01 31.37Q25.07 32.21 24.19 32.82L24.19 32.82Q23.72 33.08 22.98 33.08L22.98 33.08L10.88 33.08L10.88 39.89Q10.88 42.15 11.69 43.13Q12.50 44.10 14.72 44.10L14.72 44.10L25.27 44.10Q26.08 44.10 26.48 44.37L26.48 44.37Q27.36 44.98 28.30 45.82Q29.24 46.66 30.29 47.84L30.29 47.84Q30.63 48.28 30.63 48.55L30.63 48.55Q30.63 48.85 30.29 49.22L30.29 49.22Q29.24 50.40 28.30 51.24Q27.36 52.09 26.48 52.69L26.48 52.69Q26.01 52.96 25.27 52.96L25.27 52.96ZM45.79 53.81L45.79 53.81Q40.83 53.81 37.92 51.03Q35.01 48.25 35.01 43.36L35.01 43.36Q35.01 40.83 35.93 38.66Q36.86 36.49 39.17 34.82Q41.47 33.15 45.64 32.14Q49.80 31.13 56.26 30.96L56.26 30.96Q56.26 27.90 54.73 26.55Q53.20 25.20 50.13 25.20L50.13 25.20Q47.37 25.20 45.62 26.14Q43.87 27.09 43.43 27.42L43.43 27.42Q42.96 27.83 42.28 27.73L42.28 27.73Q41.37 27.59 40.35 27.26Q39.32 26.92 38.14 26.48L38.14 26.48Q37.97 26.41 37.77 26.26Q37.57 26.11 37.53 25.81L37.53 25.81Q37.53 25.64 37.57 25.39Q37.60 25.13 37.73 24.46L37.73 24.46Q37.87 23.79 38.14 22.79Q38.41 21.80 38.64 21.26L38.64 21.26Q38.95 20.69 39.65 20.18L39.65 20.18Q40.23 19.71 43.13 18.67Q46.02 17.62 51.51 17.62L51.51 17.62Q66.64 17.62 66.64 32.34L66.64 32.34L66.64 51.41Q66.64 52.05 66.29 52.51Q65.93 52.96 65.09 52.96L65.09 52.96L60.04 52.96Q59.50 52.96 59.08 52.81Q58.66 52.66 58.29 52.22L58.29 52.22L56.20 49.53L55.96 49.53Q54.41 51.78 51.80 52.79Q49.19 53.81 45.79 53.81ZM49.49 45.99L49.49 45.99Q52.59 45.99 54.18 44.41Q55.76 42.82 56.20 41.14L56.20 41.14L56.20 37.40Q51.51 37.40 49.17 38.12Q46.83 38.85 46.06 40.01Q45.28 41.17 45.28 42.52L45.28 42.52Q45.28 44.47 46.49 45.23Q47.71 45.99 49.49 45.99ZM85.34 53.81L85.34 53.81Q81.74 53.81 79.36 53.20Q76.98 52.59 75.55 51.73Q74.12 50.87 73.31 50.17L73.31 50.17Q72.71 49.59 73.18 48.89L73.18 48.89L76.61 43.80Q77.36 42.72 78.30 43.66L78.30 43.66Q79.28 44.61 80.94 45.50Q82.61 46.39 85.10 46.39L85.10 46.39Q87.33 46.39 88.76 45.64Q90.19 44.88 90.19 43.43L90.19 43.43Q90.19 42.42 89.55 41.78Q88.91 41.14 87.29 40.46Q85.68 39.79 82.78 38.75L82.78 38.75Q78.50 37.20 76.31 35.01Q74.12 32.82 74.12 28.60L74.12 28.60Q74.12 24.73 76.26 22.30Q78.40 19.88 81.75 18.75Q85.10 17.62 88.74 17.62L88.74 17.62Q93.36 17.62 95.23 18.48Q97.10 19.34 97.64 19.81L97.64 19.81Q98.14 20.25 98.35 20.82L98.35 20.82Q98.78 22.14 99.02 24.29L99.02 24.29Q99.15 25.54 98.38 25.94L98.38 25.94Q97.97 26.18 97.10 26.45Q96.22 26.72 95.35 26.92Q94.47 27.12 94.03 27.12L94.03 27.12Q93.90 27.12 93.75 27.04Q93.59 26.95 93.22 26.62L93.22 26.62Q92.79 26.18 91.72 25.61Q90.66 25.03 88.81 25.03L88.81 25.03Q86.99 25.03 85.76 25.62Q84.53 26.21 84.53 27.69L84.53 27.69Q84.53 29.31 86.10 30.12Q87.67 30.93 91.27 32.21L91.27 32.21Q94.10 33.19 96.21 34.35Q98.31 35.51 99.46 37.38Q100.60 39.25 100.60 42.42L100.60 42.42Q100.60 46.53 98.36 49.04Q96.12 51.55 92.63 52.68Q89.15 53.81 85.34 53.81ZM108.25 69.17L108.25 69.17Q107.00 69.17 106.36 68.92Q105.72 68.66 105.29 68.29L105.29 68.29Q104.41 67.45 103.40 65.93L103.40 65.93Q103.16 65.56 102.89 65.07Q102.62 64.59 102.62 64.25L102.62 64.25Q102.62 63.88 102.79 63.58Q102.96 63.27 103.20 63.00L103.20 63.00Q103.74 62.30 104.51 61.54Q105.29 60.78 105.82 60.34L105.82 60.34Q106.20 60.04 106.43 59.95Q106.67 59.87 106.84 59.87L106.84 59.87Q107.00 59.87 107.34 59.94Q107.68 60.00 108.35 60.00L108.35 60.00Q110.68 60.00 113.20 58.49Q115.73 56.97 118.19 52.79L118.19 52.79Q115.63 50.44 113.15 46.88Q110.68 43.33 108.69 39.17Q106.70 35.01 105.50 30.86Q104.31 26.72 104.31 23.21L104.31 23.21Q104.31 22.47 104.68 22.03L104.68 22.03Q106.23 20.11 109.09 18.02L109.09 18.02Q109.60 17.69 110.00 17.69L110.00 17.69Q110.44 17.69 110.91 18.02L110.91 18.02Q112.46 19.14 113.52 20.11Q114.58 21.09 115.33 22.03L115.33 22.03Q115.70 22.47 115.70 23.28L115.70 23.28L115.70 23.15Q115.70 25.81 116.34 28.77Q116.98 31.74 118.09 34.55Q119.20 37.36 120.58 39.64Q121.96 41.91 123.45 43.26L123.45 43.26L123.61 43.26Q124.29 41.98 125.11 39.57Q125.94 37.16 126.68 34.21Q127.42 31.27 127.89 28.35Q128.36 25.44 128.36 23.18L128.36 23.18L128.36 23.28Q128.36 22.47 128.70 22.03L128.70 22.03Q129.48 21.09 130.52 20.11Q131.56 19.14 133.05 18.02L133.05 18.02Q133.52 17.69 133.92 17.69L133.92 17.69Q134.40 17.69 134.80 18.02L134.80 18.02Q136.32 19.14 137.36 20.11Q138.40 21.09 139.15 22.03L139.15 22.03Q139.48 22.47 139.48 23.25L139.48 23.25Q139.45 26.31 138.30 31.25Q137.16 36.18 134.97 41.95Q132.78 47.71 129.64 53.23L129.64 53.23Q124.96 61.55 119.54 65.36Q114.11 69.17 108.25 69.17ZM139.48 23.18L139.48 23.18L139.48 23.28L139.48 23.25Q139.48 23.21 139.48 23.18ZM104.31 23.28L104.31 23.18L104.31 23.21L104.31 23.28ZM192.61 33.62L192.88 33.62Q193.35 31.80 193.91 30.04Q194.47 28.27 195.28 26.08L195.28 26.08Q195.98 24.12 196.99 21.58Q198.00 19.04 199.13 16.41Q200.26 13.78 201.34 11.52Q202.42 9.27 203.29 7.92L203.29 7.92Q204.37 6.27 205.64 5.46Q206.90 4.65 209.36 4.65L209.36 4.65L213.77 4.65Q215.52 4.65 216.72 5.17Q217.92 5.69 218.42 7.65L218.42 7.65Q218.79 9.10 219.13 11.89Q219.47 14.69 219.70 19.64Q219.94 24.59 220.07 32.36Q220.21 40.13 220.21 51.55L220.21 51.55Q220.21 52.15 219.80 52.56Q219.40 52.96 218.83 52.96L218.83 52.96L211.14 52.96Q210.57 52.96 210.17 52.56Q209.76 52.15 209.76 51.51L209.76 51.51Q209.76 42.62 209.76 36.42Q209.76 30.22 209.73 26.14Q209.70 22.07 209.64 19.66Q209.59 17.25 209.49 15.94L209.49 15.94L209.29 15.94Q207.51 20.05 205.48 25.08Q203.46 30.12 201.54 35.46Q199.62 40.80 198.11 45.89L198.11 45.89Q197.67 47.40 197.01 47.99Q196.35 48.58 194.03 48.58L194.03 48.58L190.15 48.58Q188.17 48.58 187.51 48.08Q186.85 47.57 186.38 45.89L186.38 45.89Q185.27 42.05 183.92 37.77Q182.57 33.49 181.14 29.36Q179.71 25.23 178.38 21.75Q177.05 18.26 176.00 15.94L176.00 15.94L175.80 15.94Q175.53 19.91 175.33 25.61Q175.13 31.30 175.01 37.97Q174.89 44.64 174.86 51.58L174.86 51.58Q174.86 52.19 174.45 52.58Q174.05 52.96 173.48 52.96L173.48 52.96L166.57 52.96Q166.00 52.96 165.59 52.56Q165.19 52.15 165.19 51.51L165.19 51.51Q165.22 33.56 165.91 22.84Q166.60 12.13 167.41 8.49L167.41 8.49Q167.95 6.10 169.32 5.37Q170.68 4.65 172.43 4.65L172.43 4.65L177.89 4.65Q179.74 4.65 180.60 5.31Q181.46 5.96 182.71 7.85L182.71 7.85Q183.45 8.96 184.48 11.19Q185.50 13.41 186.62 16.12Q187.73 18.83 188.72 21.48Q189.72 24.12 190.36 26.08L190.36 26.08Q191.03 28.06 191.60 29.93Q192.18 31.80 192.61 33.62L192.61 33.62ZM246.72 53.81L246.72 53.81Q241.03 53.81 236.82 51.97Q232.61 50.13 230.28 46.26Q227.96 42.38 227.96 36.25L227.96 36.25Q227.96 27.05 232.67 22.34Q237.39 17.62 245.21 17.62L245.21 17.62Q250.29 17.62 253.81 19.44Q257.33 21.26 259.17 24.46Q261.01 27.66 261.01 31.77L261.01 31.77Q261.01 35.78 258.95 37.36Q256.90 38.95 252.96 38.95L252.96 38.95L238.50 38.95Q238.77 42.42 241.05 44.24Q243.32 46.06 247.23 46.06L247.23 46.06Q250.33 46.06 252.20 45.13Q254.07 44.20 254.81 43.66L254.81 43.66Q255.45 43.19 256.26 43.23L256.26 43.23Q256.90 43.23 258.09 43.48Q259.29 43.73 260.47 44.41L260.47 44.41Q261.31 44.84 261.31 45.62L261.31 45.62Q261.31 46.06 261.14 46.86L261.14 46.86Q261.04 47.34 260.81 48.23Q260.57 49.12 260.20 49.90L260.20 49.90Q260.00 50.27 259.56 50.60L259.56 50.60Q258.88 51.08 257.39 51.85Q255.89 52.63 253.29 53.22Q250.70 53.81 246.72 53.81ZM238.43 32.04L238.43 32.04L249.42 32.04Q251.14 32.04 251.14 30.46L251.14 30.46Q251.14 28.06 249.64 26.43Q248.14 24.80 245.14 24.80L245.14 24.80Q241.87 24.80 240.34 26.89Q238.80 28.97 238.43 32.04ZM277.35 53.81L277.35 53.81Q272.40 53.81 269.48 51.03Q266.57 48.25 266.57 43.36L266.57 43.36Q266.57 40.83 267.49 38.66Q268.42 36.49 270.73 34.82Q273.04 33.15 277.20 32.14Q281.36 31.13 287.83 30.96L287.83 30.96Q287.83 27.90 286.29 26.55Q284.76 25.20 281.69 25.20L281.69 25.20Q278.93 25.20 277.18 26.14Q275.43 27.09 274.99 27.42L274.99 27.42Q274.52 27.83 273.84 27.73L273.84 27.73Q272.93 27.59 271.91 27.26Q270.88 26.92 269.70 26.48L269.70 26.48Q269.53 26.41 269.33 26.26Q269.13 26.11 269.09 25.81L269.09 25.81Q269.09 25.64 269.13 25.39Q269.16 25.13 269.30 24.46L269.30 24.46Q269.43 23.79 269.70 22.79Q269.97 21.80 270.21 21.26L270.21 21.26Q270.51 20.69 271.22 20.18L271.22 20.18Q271.79 19.71 274.69 18.67Q277.58 17.62 283.08 17.62L283.08 17.62Q298.20 17.62 298.20 32.34L298.20 32.34L298.20 51.41Q298.20 52.05 297.85 52.51Q297.50 52.96 296.65 52.96L296.65 52.96L291.60 52.96Q291.06 52.96 290.64 52.81Q290.22 52.66 289.85 52.22L289.85 52.22L287.76 49.53L287.52 49.53Q285.97 51.78 283.36 52.79Q280.75 53.81 277.35 53.81ZM281.05 45.99L281.05 45.99Q284.15 45.99 285.74 44.41Q287.32 42.82 287.76 41.14L287.76 41.14L287.76 37.40Q283.08 37.40 280.73 38.12Q278.39 38.85 277.62 40.01Q276.84 41.17 276.84 42.52L276.84 42.52Q276.84 44.47 278.06 45.23Q279.27 45.99 281.05 45.99ZM318.75 50.44L311.71 53.67Q311.01 53.97 310.70 53.97L310.70 53.97Q310.40 53.97 310.06 53.74L310.06 53.74Q309.29 53.20 308.29 51.09Q307.30 48.99 307.30 44.61L307.30 44.61L307.30 5.59Q307.30 4.78 307.64 4.35L307.64 4.35Q309.05 2.49 311.78 0.34L311.78 0.34Q312.25 0 312.62 0L312.62 0Q313.06 0 313.46 0.34L313.46 0.34Q314.91 1.45 315.91 2.43Q316.90 3.40 317.61 4.35L317.61 4.35Q317.95 4.78 317.95 5.59L317.95 5.59L317.95 42.55Q317.95 44.78 318.32 46.34Q318.69 47.91 319.19 48.85L319.19 48.85Q319.77 49.96 318.75 50.44L318.75 50.44Z"
    fill="#F4A460"
  />
</svg>
